<svg version="1.1" id="Layer_1" xmlns="http://www.w3.org/2000/svg" xmlns:xlink="http://www.w3.org/1999/xlink" x="0px" y="0px"
	 width="100%" viewBox="0 0 416 560" enable-background="new 0 0 416 560" xml:space="preserve">
<path fill="#000000" opacity="1.000000" stroke="none" 
	d="
M417.000000,337.531342 
	C413.103943,348.066772 410.183777,358.537659 404.319794,367.781158 
	C400.136169,374.375824 395.141968,379.989594 387.861633,383.315948 
	C382.283813,385.864410 379.825134,385.568787 376.466980,381.449615 
	C372.957062,377.144165 372.476868,370.897308 375.679382,367.171783 
	C377.361938,365.214417 379.554901,363.695862 382.695068,360.948944 
	C375.131439,363.328094 368.432587,361.386810 362.169403,363.439819 
	C361.858673,365.744904 363.208099,366.923157 364.068115,368.284027 
	C367.205505,373.248627 366.859314,377.763336 362.969604,381.875549 
	C359.400757,385.648468 356.392303,385.918457 350.818817,383.140533 
	C345.494812,380.486908 342.571777,375.567230 339.136566,370.373047 
	C334.935120,375.658905 331.026276,380.534058 327.171265,385.451416 
	C325.930023,387.034668 326.324768,388.944214 326.394073,390.764923 
	C327.688293,424.751556 327.120422,458.736725 326.139801,492.715118 
	C325.786438,504.959381 321.609772,516.153320 315.611725,526.735718 
	C314.324646,529.006592 312.556061,531.075989 311.910767,534.531189 
	C316.249542,534.531189 320.376282,534.825745 324.447388,534.474670 
	C335.601624,533.512817 346.766663,534.040894 357.925262,533.853333 
	C362.010742,533.784607 365.487213,534.894104 368.088562,538.162537 
	C369.979218,540.538086 371.915100,543.017822 370.664886,546.287170 
	C369.292114,549.876953 366.947906,552.748291 362.875763,553.242249 
	C358.586731,553.762512 354.250580,554.159485 349.935150,554.157898 
	C261.772888,554.125854 173.610657,554.025208 85.448402,553.952393 
	C78.949211,553.947021 72.450005,554.074585 65.950668,554.095093 
	C59.388214,554.115845 54.773201,549.915344 54.726685,543.946045 
	C54.685555,538.667175 59.631161,533.869995 65.655357,533.824402 
	C82.320663,533.698364 98.987343,533.753540 115.653481,533.737122 
	C116.470932,533.736328 117.288391,533.737000 118.919006,533.737000 
	C111.473091,524.541382 107.663025,514.367126 105.050674,503.662354 
	C103.663063,497.976227 102.867004,492.225861 102.861328,486.364014 
	C102.832123,456.197998 102.533241,426.028717 102.919106,395.868164 
	C103.018394,388.107727 102.264061,381.366394 96.691223,375.553070 
	C94.679565,373.454681 93.472534,370.584930 91.564713,367.533600 
	C89.215385,370.678406 87.152611,373.390228 85.143906,376.141510 
	C82.832047,379.308044 79.813248,381.605835 76.405754,383.455627 
	C70.108131,386.874390 68.200279,386.679688 64.775795,382.242157 
	C60.967457,377.307220 60.824459,371.148804 64.383957,367.122284 
	C65.546333,365.807373 67.374680,364.981018 67.707947,362.335175 
	C60.645687,362.792053 53.948536,361.170349 46.998001,359.434540 
	C47.429531,362.093567 49.330784,362.790161 50.559032,364.042572 
	C55.145340,368.719055 55.432613,375.217865 51.234226,380.282867 
	C48.442806,383.650482 44.943268,383.719818 41.263519,382.175446 
	C35.536423,379.771912 31.185562,375.613953 27.910883,370.490570 
	C13.600088,348.100708 9.517239,323.305420 11.179255,297.257172 
	C12.256651,280.371429 15.178244,263.852020 22.250771,248.331284 
	C31.242414,228.599030 45.543098,213.228287 62.380165,199.961578 
	C73.696724,191.044739 85.989494,183.790985 99.057274,177.773148 
	C102.122833,176.361435 105.274849,175.299850 108.564659,174.835464 
	C112.034119,174.345764 114.163445,172.316116 116.007576,169.929962 
	C115.460320,167.985260 114.108841,168.374283 113.030098,168.290314 
	C93.674271,166.783722 76.413246,151.666779 71.820587,132.177460 
	C67.272446,112.877068 75.826981,91.790184 92.485649,81.949013 
	C98.845192,78.192085 105.903603,76.060646 113.271278,75.310234 
	C116.763092,74.954582 118.881752,73.353241 120.644981,70.322105 
	C137.230911,41.809547 162.293396,24.566677 194.241058,18.479641 
	C239.882355,9.783541 286.281281,28.411703 309.741394,68.831451 
	C310.324768,69.836586 310.933472,70.849319 311.679474,71.732536 
	C312.787720,73.044548 314.327759,72.983536 315.838470,72.671089 
	C317.514862,72.324379 317.729767,70.975906 317.744873,69.590309 
	C317.793854,65.091049 317.727814,60.588829 317.870239,56.092953 
	C317.952148,53.506763 316.084534,52.359539 314.609497,50.807896 
	C309.064514,44.974957 308.262390,38.120899 310.971619,30.863869 
	C313.551392,23.953688 318.896515,20.246717 326.177521,19.745914 
	C333.941010,19.211927 340.735626,23.861441 343.728363,31.286940 
	C346.438477,38.011177 344.329926,47.165119 338.516693,51.707985 
	C336.116333,53.583794 335.155273,55.484959 335.232697,58.409397 
	C335.386963,64.238792 335.381165,70.076401 335.265930,75.907150 
	C335.214203,78.525093 336.029694,80.267967 338.434021,81.535057 
	C365.813263,95.963989 365.614288,131.417145 349.814484,151.310379 
	C341.689270,161.540710 330.272919,166.573776 317.027710,166.869781 
	C316.041504,166.891830 315.031097,166.552567 314.020782,167.765656 
	C315.129822,171.955032 318.974670,173.051559 322.419556,174.307892 
	C340.558258,180.922958 357.464661,189.763000 372.278748,202.224548 
	C393.629913,220.185074 408.598236,242.334610 415.557587,269.589691 
	C415.803040,270.550995 416.262054,271.457764 416.810791,272.694977 
	C417.000000,294.354218 417.000000,315.708466 417.000000,337.531342 
M101.030365,341.544037 
	C109.163834,362.267151 123.883018,378.274170 139.644806,393.091461 
	C158.220016,410.553558 181.123932,418.808960 206.467667,421.297913 
	C232.400024,423.844635 256.351166,418.130798 277.957794,404.301361 
	C309.527161,384.095306 329.642853,355.504425 337.309326,318.421326 
	C341.308594,299.076874 341.607605,279.861053 337.747009,260.484589 
	C333.256622,237.947342 322.845703,218.217865 309.576019,199.807953 
	C306.392212,195.390869 302.748047,191.322876 298.441620,187.572769 
	C276.020844,212.514969 249.108673,227.718216 215.420410,227.918564 
	C181.257935,228.121735 155.070801,210.899948 132.109238,187.404922 
	C128.036530,191.343033 123.530418,194.681107 120.309280,198.981644 
	C100.575752,225.327850 89.812614,255.046631 89.521141,288.000305 
	C89.359711,306.250549 93.340958,324.001953 101.030365,341.544037 
M157.638992,430.965210 
	C145.294296,425.500092 134.476532,417.518158 123.223442,409.546082 
	C123.223442,417.417969 123.300255,424.706604 123.208794,431.993103 
	C122.951942,452.455902 122.610939,472.917694 122.339233,493.380310 
	C122.284309,497.517517 122.624001,501.592377 125.295784,505.153625 
	C149.684998,480.176910 182.638687,483.223206 204.204941,505.561737 
	C205.288101,504.043823 204.748825,502.342896 204.735229,500.762573 
	C204.586288,483.460663 204.694443,466.158020 204.077118,448.856964 
	C203.914658,444.304169 202.218048,442.784698 198.009750,442.344299 
	C184.176849,440.896790 170.997665,436.962585 157.638992,430.965210 
M248.971878,439.623108 
	C243.118515,440.852875 237.313751,442.555725 231.396500,443.163635 
	C226.615219,443.654816 224.768555,445.224091 224.830032,450.199615 
	C225.049957,468.001709 225.884583,485.813995 224.628387,503.614777 
	C224.567841,504.472656 224.355637,505.653290 225.463074,506.168274 
	C250.451813,481.382141 276.707031,479.529510 304.322388,501.674286 
	C306.212128,496.150726 306.473419,415.661560 304.468506,411.513153 
	C288.157867,424.652649 270.065826,434.224609 248.971878,439.623108 
M141.968201,172.543060 
	C146.867096,178.713821 152.702377,183.960754 158.830841,188.812943 
	C182.147369,207.273697 208.226028,214.329132 237.491669,206.947815 
	C250.425797,203.685577 261.612122,197.111816 272.229889,188.983383 
	C300.646271,167.229248 309.273560,137.726456 305.107361,103.966881 
	C301.536469,75.031265 282.521790,56.485168 258.305054,42.993855 
	C239.270004,32.389290 218.606094,30.405214 197.286163,34.375767 
	C160.143784,41.293034 136.671158,64.055023 126.198021,99.271370 
	C118.404259,125.478210 123.965691,150.376816 141.968201,172.543060 
M56.477299,294.333435 
	C49.985519,294.319305 43.493702,294.285675 37.001968,294.296875 
	C31.184778,294.306946 30.301428,294.994659 30.381657,300.915314 
	C30.455894,306.393646 30.486551,311.979889 31.562860,317.311401 
	C33.071941,324.786682 35.118542,332.414124 41.367348,337.556213 
	C51.486767,345.883331 63.266781,346.111084 75.435936,343.685577 
	C78.166245,343.141357 78.997078,341.850983 77.983192,339.080139 
	C73.964836,328.098236 71.662529,316.732117 70.190376,305.130310 
	C68.802383,294.191833 68.544014,294.224609 56.477299,294.333435 
M399.825989,308.401489 
	C399.824463,305.738464 399.680054,303.066071 399.853363,300.414459 
	C400.147369,295.915436 398.258423,294.167419 393.704102,294.287933 
	C385.055145,294.516754 376.389038,294.530457 367.742676,294.247650 
	C363.219910,294.099762 361.348969,295.390045 360.882751,300.239502 
	C359.659027,312.967865 357.850159,325.676239 353.602264,337.811401 
	C352.100006,342.102966 353.117126,343.707947 357.408844,343.858032 
	C358.226624,343.886627 359.027618,344.238861 359.848297,344.362976 
	C377.186951,346.985565 393.808380,339.985840 398.187408,321.684326 
	C399.154999,317.640442 399.982391,313.559448 399.825989,308.401489 
M71.802704,261.637787 
	C75.378738,241.644272 81.870438,222.663757 93.276634,204.317032 
	C69.550835,210.851425 35.033485,253.019424 35.451977,273.987152 
	C43.045013,273.987152 50.664341,273.993134 58.283653,273.985779 
	C69.936432,273.974487 69.936432,273.970581 71.802704,261.637787 
M360.531555,270.803192 
	C360.887543,273.572754 362.364014,274.759064 365.245300,274.719543 
	C373.561005,274.605560 381.880127,274.616669 390.196320,274.713684 
	C394.233673,274.760773 394.971161,273.216583 393.820709,269.458069 
	C387.017883,247.233963 374.306183,229.084122 356.143188,214.778015 
	C350.624725,210.431396 344.859283,206.238220 337.737610,204.015549 
	C343.315643,214.340469 348.789917,224.514786 352.501221,235.512817 
	C356.288696,246.736572 359.241028,258.144623 360.531555,270.803192 
M286.961151,513.518921 
	C277.339813,505.161804 266.529114,502.973663 254.458511,507.218506 
	C243.806854,510.964325 237.824036,518.945740 233.524216,529.563721 
	C247.002777,530.101624 259.580902,529.994141 272.137115,528.173157 
	C278.348175,527.272461 284.045410,525.251099 289.395355,522.016296 
	C291.850250,520.532043 292.300476,518.987305 290.256714,516.885376 
	C289.328156,515.930359 288.394775,514.979980 286.961151,513.518921 
M192.504211,523.006531 
	C186.796356,514.453125 179.055618,509.223389 168.894577,506.801208 
	C159.355133,504.527191 141.236801,510.530548 138.738571,520.545837 
	C156.034775,533.624023 175.925064,529.141418 195.110535,529.933105 
	C195.574936,526.628784 193.832397,525.292114 192.504211,523.006531 
M325.286560,123.488815 
	C325.578033,130.595657 323.793121,137.543671 323.255127,144.613632 
	C330.945404,144.709641 339.202911,135.877762 339.651703,124.402908 
	C340.251404,109.070625 333.779358,97.670105 323.020325,95.803741 
	C323.928192,104.740517 325.243042,113.577774 325.286560,123.488815 
M92.340294,127.823257 
	C94.367592,136.966263 99.727806,143.230438 107.009590,143.989594 
	C105.372375,128.099762 104.818619,112.310165 107.870193,96.491188 
	C97.322968,99.010773 92.326508,104.991005 92.156540,114.989891 
	C92.088844,118.972481 92.215340,122.958382 92.340294,127.823257 
z"/>
<path fill="#000000" opacity="1.000000" stroke="none" 
	d="
M401.501343,554.234741 
	C396.361908,554.772278 392.167816,554.152405 389.527069,549.481323 
	C385.949066,543.152466 389.819397,535.500793 397.098541,534.764893 
	C398.412567,534.632019 399.749207,534.665588 401.073334,534.700684 
	C406.423096,534.842407 410.608398,537.691589 411.554443,542.145264 
	C412.589844,547.019653 409.317657,549.791687 405.957336,552.307922 
	C404.796844,553.176941 403.278717,553.568420 401.501343,554.234741 
z"/>
<path fill="#000000" opacity="1.000000" stroke="none" 
	d="
M17.943924,550.953369 
	C14.192296,544.323181 15.667025,538.712585 21.676991,535.457642 
	C27.058943,532.542847 34.194397,534.729065 37.165405,540.203247 
	C40.013340,545.450623 35.343422,553.418518 28.803585,554.246643 
	C24.914268,554.739075 21.130571,554.400696 17.943924,550.953369 
z"/>
<path fill="#000000" opacity="1.000000" stroke="none" 
	d="
M150.954346,289.174316 
	C161.803818,264.189911 180.313339,249.129196 206.753876,244.479370 
	C226.253845,241.050125 243.073196,247.670853 258.185883,259.776703 
	C297.749420,291.468781 286.316071,353.985077 245.103928,372.567474 
	C216.793365,385.332581 184.969696,380.087402 165.598251,358.379944 
	C147.799026,338.434296 143.078369,315.207092 150.954346,289.174316 
M178.711151,341.746094 
	C190.984604,356.070587 206.830353,361.550781 224.917297,357.952881 
	C254.712173,352.025970 270.281586,319.018890 256.961426,291.670929 
	C242.946167,262.895782 207.765259,255.382050 183.909210,276.577148 
	C166.708496,291.859283 161.337891,318.174438 178.711151,341.746094 
z"/>
<path fill="#000000" opacity="1.000000" stroke="none" 
	d="
M128.693161,128.004684 
	C124.262581,86.492195 154.681107,50.783524 192.651184,40.707085 
	C230.190369,30.745003 261.450714,41.448627 285.318817,71.136734 
	C301.878906,91.734856 305.654449,115.855652 298.679688,141.907196 
	C288.064575,181.555786 241.763657,214.450806 193.853653,201.772827 
	C183.705231,199.087357 174.220093,194.224518 165.677109,188.042984 
	C145.263809,173.272369 131.332443,154.333740 128.693161,128.004684 
M159.031952,160.474747 
	C175.003830,183.755508 212.854599,196.329865 242.367569,183.708954 
	C279.130188,167.987823 297.164246,119.619194 275.751648,87.614243 
	C262.656860,68.041786 244.972641,56.150219 221.342377,53.991344 
	C202.144928,52.237453 185.161102,58.301414 170.280182,70.191780 
	C158.559052,79.557350 149.643036,91.197121 146.417679,106.085960 
	C142.159622,125.742012 147.138672,143.641312 159.031952,160.474747 
z"/>
<path fill="#000000" opacity="1.000000" stroke="none" 
	d="
M218.288269,281.648224 
	C235.450623,284.307068 248.000320,297.406219 246.622055,312.828522 
	C244.963104,331.391296 236.025360,342.833740 218.082321,344.731171 
	C201.131271,346.523743 188.253296,338.165100 184.165070,319.449493 
	C179.711609,299.061859 197.320206,279.325714 218.288269,281.648224 
M203.742737,309.517059 
	C203.591293,310.999573 203.287430,312.485046 203.316132,313.964050 
	C203.414261,319.021393 206.482101,322.945618 211.228622,324.273438 
	C215.196793,325.383453 222.127380,322.808502 224.567078,319.228027 
	C227.420578,315.040253 227.430359,310.910980 224.325180,306.758209 
	C218.144058,298.491791 209.520157,299.343658 203.742737,309.517059 
z"/>
<path fill="#000000" opacity="1.000000" stroke="none" 
	d="
M273.015930,114.452599 
	C273.562714,128.444336 262.904816,137.719849 250.861374,134.213516 
	C243.313232,132.015945 239.038406,124.816933 239.637985,115.312744 
	C240.181229,106.701340 245.417160,100.966179 253.801132,99.799149 
	C261.561493,98.718925 269.270966,103.312897 271.994629,110.677254 
	C272.396454,111.763733 272.636719,112.909981 273.015930,114.452599 
z"/>
<path fill="#000000" opacity="1.000000" stroke="none" 
	d="
M190.255676,110.271713 
	C192.958633,118.509399 190.789749,125.211708 184.748047,130.411484 
	C179.814896,134.657211 173.849884,136.347748 167.606583,133.404724 
	C160.423218,130.018585 157.096436,123.651672 157.021988,116.085770 
	C156.957016,109.482941 160.398560,104.500107 166.717361,101.699165 
	C176.575012,97.329575 184.588181,100.067039 190.255676,110.271713 
z"/>
<path fill="#000000" opacity="1.000000" stroke="none" 
	d="
M234.609619,147.276489 
	C232.430740,153.155945 228.256546,155.699112 222.591537,155.932526 
	C216.433243,156.186279 210.269241,156.194504 204.147339,155.278275 
	C199.788406,154.625900 196.846039,152.055908 195.265427,148.097931 
	C192.944656,142.286423 196.158981,137.656494 202.325974,137.666763 
	C210.483627,137.680344 218.641266,137.711349 226.798889,137.742950 
	C232.852783,137.766403 235.122040,140.390030 234.609619,147.276489 
z"/>
</svg>